<?xml version="1.0" encoding="UTF-8"?>
<svg width="39px" height="39px" viewBox="0 0 39 39" version="1.1" xmlns="http://www.w3.org/2000/svg" xmlns:xlink="http://www.w3.org/1999/xlink">
    <title>Setting icons</title>
    <g id="Trainez" stroke="none" stroke-width="1" fill="none" fill-rule="evenodd">
        <g id="Setting-icons">
            <rect id="Hover-bg" fill="#FFFFFF" opacity="0" x="0" y="0" width="39" height="39" rx="5"></rect>
            <g id="icon" transform="translate(5.000000, 5.000000)" stroke="#D8D8D8">
                <path d="M18.1634254,3.62559626 C18.5388868,3.35364716 18.9890324,3.25962925 19.4133,3.32746396 C19.8375676,3.39529867 20.2359571,3.624986 20.5079062,4.00044738 C20.6623449,4.2136703 20.7644718,4.46022637 20.8060385,4.72020242 L20.8060385,4.72020242 L21.1368455,6.78921262 C21.2221304,7.32262104 21.4739116,7.79846407 21.8377238,8.16227621 C22.2015359,8.52608836 22.677379,8.77786961 23.2107874,8.86315449 L23.2107874,8.86315449 L25.2797976,9.19396155 C25.7375859,9.26715578 26.1223676,9.51897611 26.3744037,9.86694496 C26.6264398,10.2149138 26.7457303,10.6590312 26.672536,11.1168195 C26.6309693,11.3767956 26.5288425,11.6233517 26.3744037,11.8365746 L26.3744037,11.8365746 L25.1453085,13.5335016 C24.8284373,13.9709839 24.6700017,14.4854919 24.6700017,15 C24.6700017,15.5145081 24.8284373,16.0290161 25.1453085,16.4664984 L25.1453085,16.4664984 L26.3744037,18.1634254 C26.6463528,18.5388868 26.7403707,18.9890324 26.672536,19.4133 C26.6047013,19.8375676 26.375014,20.2359571 25.9995526,20.5079062 C25.7863297,20.6623449 25.5397736,20.7644718 25.2797976,20.8060385 L25.2797976,20.8060385 L23.2107874,21.1368455 C22.677379,21.2221304 22.2015359,21.4739116 21.8377238,21.8377238 C21.4739116,22.2015359 21.2221304,22.677379 21.1368455,23.2107874 L21.1368455,23.2107874 L20.8060385,25.2797976 C20.7328442,25.7375859 20.4810239,26.1223676 20.133055,26.3744037 C19.7850862,26.6264398 19.3409688,26.7457303 18.8831805,26.672536 C18.6232044,26.6309693 18.3766483,26.5288425 18.1634254,26.3744037 L18.1634254,26.3744037 L16.4664984,25.1453085 C16.0290161,24.8284373 15.5145081,24.6700017 15,24.6700017 C14.4854919,24.6700017 13.9709839,24.8284373 13.5335016,25.1453085 L13.5335016,25.1453085 L11.8365746,26.3744037 C11.4611132,26.6463528 11.0109676,26.7403707 10.5867,26.672536 C10.1624324,26.6047013 9.76404295,26.375014 9.49209385,25.9995526 C9.33765511,25.7863297 9.23552824,25.5397736 9.19396155,25.2797976 L9.19396155,25.2797976 L8.86315449,23.2107874 C8.77786961,22.677379 8.52608836,22.2015359 8.16227621,21.8377238 C7.79846407,21.4739116 7.32262104,21.2221304 6.78921262,21.1368455 L6.78921262,21.1368455 L4.72020242,20.8060385 C4.26241408,20.7328442 3.87763235,20.4810239 3.62559626,20.133055 C3.37356017,19.7850862 3.25426973,19.3409688 3.32746396,18.8831805 C3.36903065,18.6232044 3.47115752,18.3766483 3.62559626,18.1634254 L3.62559626,18.1634254 L4.85469149,16.4664984 C5.17156268,16.0290161 5.32999828,15.5145081 5.32999828,15 C5.32999828,14.4854919 5.17156268,13.9709839 4.85469149,13.5335016 L4.85469149,13.5335016 L3.62559626,11.8365746 C3.35364716,11.4611132 3.25962925,11.0109676 3.32746396,10.5867 C3.39529867,10.1624324 3.624986,9.76404295 4.00044738,9.49209385 C4.2136703,9.33765511 4.46022637,9.23552824 4.72020242,9.19396155 L4.72020242,9.19396155 L6.78921262,8.86315449 C7.32262104,8.77786961 7.79846407,8.52608836 8.16227621,8.16227621 C8.52608836,7.79846407 8.77786961,7.32262104 8.86315449,6.78921262 L8.86315449,6.78921262 L9.19396155,4.72020242 C9.26715578,4.26241408 9.51897611,3.87763235 9.86694496,3.62559626 C10.2149138,3.37356017 10.6590312,3.25426973 11.1168195,3.32746396 C11.3767956,3.36903065 11.6233517,3.47115752 11.8365746,3.62559626 L11.8365746,3.62559626 L13.5335016,4.85469149 C13.9709839,5.17156268 14.4854919,5.32999828 15,5.32999828 C15.5145081,5.32999828 16.0290161,5.17156268 16.4664984,4.85469149 L16.4664984,4.85469149 Z" id="Star"></path>
                <circle id="Oval" cx="15" cy="15" r="4.32142857"></circle>
            </g>
        </g>
    </g>
</svg>