<?xml version="1.0" encoding="UTF-8"?>
<svg width="39px" height="39px" viewBox="0 0 39 39" version="1.1" xmlns="http://www.w3.org/2000/svg" xmlns:xlink="http://www.w3.org/1999/xlink">
    <title>Calendar icon</title>
    <g id="Trainez" stroke="none" stroke-width="1" fill="none" fill-rule="evenodd">
        <g id="Calendar-icon">
            <rect id="Hover-bg" fill="#FFFFFF" opacity="0" x="0" y="0" width="39" height="39" rx="5"></rect>
            <g id="icon" transform="translate(7.500000, 7.500000)" stroke="#D8D8D8" stroke-linecap="round" stroke-linejoin="round">
                <g id="Group-14" transform="translate(0.545236, 0.546766)">
                    <path d="M3.12062937,22.1840035 L20.1464161,22.1840035 C21.8684441,22.1840035 23.2648601,20.7875874 23.2648601,19.0633741 L23.2648601,4.80638112 C23.2648601,3.08435315 21.8684441,1.68575175 20.1464161,1.68575175 L3.12062937,1.68575175 C1.3986014,1.68575175 4.61169564e-13,3.08435315 4.61169564e-13,4.80638112 L4.61169564e-13,19.0633741 C4.61169564e-13,20.7875874 1.3986014,22.1840035 3.12062937,22.1840035 Z" id="Stroke-1"></path>
                    <line x1="0.000655594406" y1="8.03715035" x2="23.2655157" y2="8.03715035" id="Stroke-3"></line>
                    <line x1="18.3315122" y1="1.14566476e-12" x2="18.3315122" y2="3.37194056" id="Stroke-5"></line>
                    <line x1="4.93575175" y1="1.14566476e-12" x2="4.93575175" y2="3.37194056" id="Stroke-7"></line>
                </g>
            </g>
        </g>
    </g>
</svg>