<?xml version="1.0" encoding="UTF-8"?>
<svg width="39px" height="39px" viewBox="0 0 39 39" version="1.1" xmlns="http://www.w3.org/2000/svg" xmlns:xlink="http://www.w3.org/1999/xlink">
    <title>Contacts icon</title>
    <g id="Trainez" stroke="none" stroke-width="1" fill="none" fill-rule="evenodd">
        <g id="Contacts-icon">
            <rect id="Hover-bg" fill="#FFFFFF" opacity="0" x="0" y="0" width="39" height="39" rx="5"></rect>
            <g id="icon" transform="translate(7.000000, 7.000000)" stroke="#D8D8D8" stroke-linecap="round" stroke-linejoin="round">
                <path d="M0.587774295,12.3827586 C0.587774295,18.8976489 5.86833856,24.1782132 12.3832288,24.1782132 C18.8981191,24.1782132 24.1786834,18.8976489 24.1786834,12.3827586 C24.1786834,5.86786834 18.8981191,0.587304075 12.3832288,0.587304075 C5.86833856,0.587304075 0.587774295,5.86786834 0.587774295,12.3827586 Z" id="Stroke-1"></path>
                <path d="M8.13597179,9.86755486 C8.13597179,12.2139498 10.0380094,14.1136364 12.3820533,14.1136364 C14.7284483,14.1136364 16.6304859,12.2139498 16.6304859,9.86755486 C16.6304859,7.52115987 14.7284483,5.61912226 12.3820533,5.61912226 C10.0380094,5.61912226 8.13597179,7.52115987 8.13597179,9.86755486 Z" id="Stroke-3"></path>
                <path d="M21.5927116,19.750627 C20.1326803,16.6495298 16.5590125,14.4583072 12.3834639,14.4583072 C8.27609718,14.4583072 4.75415361,16.5766458 3.24945141,19.5954545" id="Stroke-5"></path>
            </g>
        </g>
    </g>
</svg>