<?xml version="1.0" encoding="UTF-8"?>
<svg width="39px" height="39px" viewBox="0 0 39 39" version="1.1" xmlns="http://www.w3.org/2000/svg" xmlns:xlink="http://www.w3.org/1999/xlink">
    <title>Classes icon</title>
    <g id="Trainez" stroke="none" stroke-width="1" fill="none" fill-rule="evenodd">
        <g id="Classes-icon">
            <rect id="Hover-bg" fill="#FFFFFF" opacity="0" x="0" y="0" width="39" height="39" rx="5"></rect>
            <g id="icon" transform="translate(7.000000, 8.000000)" stroke="#D8D8D8" stroke-linecap="round" stroke-linejoin="round">
                <path d="M4.4881993,22.7307692 L21.5118007,22.7307692 C23.236014,22.7307692 24.6324301,21.3343531 24.6324301,19.6101399 L24.6324301,5.35314685 C24.6324301,3.63111888 23.236014,2.23251748 21.5118007,2.23251748 L4.4881993,2.23251748 C2.76398601,2.23251748 1.36756993,3.63111888 1.36756993,5.35314685 L1.36756993,19.6101399 C1.36756993,21.3343531 2.76398601,22.7307692 4.4881993,22.7307692 Z" id="Stroke-1"></path>
                <path d="M5.1326486,9.64772727 L20.8669143,9.64772727 C20.8669143,9.64772727 20.0059003,16.0965909 16.496285,19.6826923 L0.762019231,19.6826923" id="Stroke-3"></path>
                <path d="M4.91717657,9.64772727 C4.91717657,9.64772727 4.05397727,16.0965909 0.546547203,19.6826923" id="Stroke-5"></path>
                <line x1="8.24737762" y1="6.3986014" x2="17.7534965" y2="6.3986014" id="Stroke-7"></line>
                <line x1="19.697771" y1="0.546765734" x2="19.697771" y2="2.23164336" id="Stroke-9"></line>
                <line x1="6.30222902" y1="0.546765734" x2="6.30222902" y2="2.23164336" id="Stroke-11"></line>
                <line x1="20.8673514" y1="9.64772727" x2="20.8673514" y2="22.5716783" id="Stroke-13"></line>
                <line x1="4.91717657" y1="19.6833479" x2="4.91717657" y2="22.5723339" id="Stroke-15"></line>
            </g>
        </g>
    </g>
</svg>