<?xml version="1.0" encoding="UTF-8"?>
<svg width="39px" height="39px" viewBox="0 0 39 39" version="1.1" xmlns="http://www.w3.org/2000/svg" xmlns:xlink="http://www.w3.org/1999/xlink">
    <title>Dashboard icon </title>
    <g id="Trainez" stroke="none" stroke-width="1" fill="none" fill-rule="evenodd">
        <g id="Dashboard-icon-">
            <rect id="Hover-bg" fill="#FFFFFF" opacity="0" x="0" y="0" width="39" height="39" rx="5"></rect>
            <g id="icon" transform="translate(7.000000, 7.000000)" stroke="#D8D8D8" stroke-linecap="round" stroke-linejoin="round">
                <path d="M16.5384091,24.4551724 L22.4906818,24.4551724 C23.7429545,24.4551724 24.7611364,23.4018809 24.7611364,22.1040752 L24.7611364,16.5249216 C24.7611364,15.227116 23.7429545,14.1761755 22.4906818,14.1761755 L16.5384091,14.1761755 C15.2838636,14.1761755 14.2679545,15.227116 14.2679545,16.5249216 L14.2679545,22.1040752 C14.2679545,23.4018809 15.2838636,24.4551724 16.5384091,24.4551724 Z" id="Stroke-4"></path>
                <path d="M2.83886364,24.4241379 L8.79113636,24.4241379 C10.0434091,24.4241379 11.0615909,23.3731975 11.0615909,22.0753918 L11.0615909,16.4938871 C11.0615909,15.1984326 10.0434091,14.1451411 8.79113636,14.1451411 L2.83886364,14.1451411 C1.58431818,14.1451411 0.568409091,15.1984326 0.568409091,16.4938871 L0.568409091,22.0753918 C0.568409091,23.3731975 1.58431818,24.4241379 2.83886364,24.4241379 Z" id="Stroke-3"></path>
                <path d="M16.5384091,10.8663009 L22.4906818,10.8663009 C23.7429545,10.8663009 24.7611364,9.8153605 24.7611364,8.51755486 L24.7611364,2.93605016 C24.7611364,1.64059561 23.7429545,0.587304075 22.4906818,0.587304075 L16.5384091,0.587304075 C15.2838636,0.587304075 14.2679545,1.64059561 14.2679545,2.93605016 L14.2679545,8.51755486 C14.2679545,9.8153605 15.2838636,10.8663009 16.5384091,10.8663009 Z" id="Stroke-2"></path>
                <path d="M2.83886364,10.8663009 L8.79113636,10.8663009 C10.0434091,10.8663009 11.0615909,9.8153605 11.0615909,8.51755486 L11.0615909,2.93605016 C11.0615909,1.64059561 10.0434091,0.587304075 8.79113636,0.587304075 L2.83886364,0.587304075 C1.58431818,0.587304075 0.568409091,1.64059561 0.568409091,2.93605016 L0.568409091,8.51755486 C0.568409091,9.8153605 1.58431818,10.8663009 2.83886364,10.8663009 Z" id="Stroke-1"></path>
            </g>
        </g>
    </g>
</svg>