<?xml version="1.0" encoding="UTF-8"?>
<svg width="31px" height="31px" viewBox="0 0 31 31" version="1.1" xmlns="http://www.w3.org/2000/svg" xmlns:xlink="http://www.w3.org/1999/xlink">
    <title>Empty heart icon </title>
    <g id="Trainez" stroke="none" stroke-width="1" fill="none" fill-rule="evenodd">
        <g id="Empty-heart-icon-">
            <rect id="Rectangle" x="0" y="0" width="31" height="31"></rect>
            <path d="M28.0242628,8.7203538 C27.6120348,7.54419847 26.8880116,6.48319269 25.9304452,5.65203765 C24.9719822,4.82011775 23.819168,4.25294161 22.5966469,4.01188185 C22.1360487,3.92104927 21.662448,3.875 21.189032,3.875 C19.8077912,3.875 18.4644238,4.26557482 17.3042248,5.00452583 C16.6057845,5.44937866 15.9922426,6.00732385 15.4868347,6.65248837 C14.9815587,6.00856344 14.3684388,5.45167321 13.6707369,5.00769073 C12.5110918,4.26982106 11.1686475,3.8798001 9.78846169,3.8798001 C9.78838257,3.8798001 9.78848807,3.8798001 9.78843532,3.8798001 C8.63841677,3.8798001 7.48420474,4.16384972 6.45089182,4.70117033 C5.41834375,5.23809532 4.52283578,6.01929772 3.86126653,6.96032748 C3.18339807,7.92448737 2.77048434,9.00411331 2.63397172,10.1691915 C2.51444406,11.1895283 2.6067536,12.2848469 2.90839478,13.4247114 C3.50592758,15.6827344 4.8285122,17.7423448 5.83281355,19.0725251 C8.01646151,21.9646883 11.0189214,24.5898923 15.0117571,27.0982061 L15.4887336,27.3978165 L15.9657366,27.0982061 C20.8770785,24.012905 24.3051381,20.7554862 26.4457171,17.1397745 C27.6768097,15.0603308 28.3181236,13.2078103 28.4064507,11.4763736 C28.4556385,10.5114225 28.3270381,9.58416004 28.0242628,8.7203538 Z M15.4887864,25.2761742 C11.9216031,22.979091 9.22761534,20.5924939 7.26411244,17.9918442 C6.35665697,16.7899477 5.16517826,14.9423856 4.64215244,12.965933 C4.3983234,12.0444992 4.32197023,11.173783 4.41522923,10.3778902 C4.51666422,9.51218498 4.82387035,8.70940853 5.32838151,7.99182058 C5.82537604,7.28491418 6.49965763,6.69724531 7.27827536,6.29237569 C8.0571832,5.88734783 8.92518293,5.67326884 9.78846169,5.67326884 C10.8269967,5.67326884 11.8365201,5.9663648 12.7078694,6.5208286 C13.5572226,7.06128774 14.2400494,7.82368536 14.6824494,8.72560225 L15.4884172,10.368501 L16.2929607,8.72491653 C16.7349651,7.82191829 17.4177655,7.05851845 18.2676462,6.51726809 C19.1394966,5.96198669 20.149653,5.66849512 21.189032,5.66849512 C21.5462435,5.66849512 21.9030858,5.70315075 22.2496949,5.77148618 C23.1659066,5.95214913 24.032192,6.3791994 24.7548701,7.00648225 C25.4772582,7.63350135 26.0225174,8.43129309 26.3317807,9.31358761 C26.5572006,9.95672132 26.6525959,10.6536847 26.6153029,11.3850663 C26.5421937,12.8192663 25.9818748,14.4027968 24.9024599,16.2261211 C22.9794677,19.4742299 19.8968304,22.4386055 15.4887864,25.2761742 Z" id="Shape" fill="#084C37" fill-rule="nonzero"></path>
        </g>
    </g>
</svg>